<svg version="1.1" viewBox="0.0 0.0 644.9028871391076 365.18635170603676" fill="none" stroke="none" stroke-linecap="square" stroke-miterlimit="10" xmlns:xlink="http://www.w3.org/1999/xlink" xmlns="http://www.w3.org/2000/svg"><clipPath id="p.0"><path d="m0 0l644.9029 0l0 365.18634l-644.9029 0l0 -365.18634z" clip-rule="nonzero"/></clipPath><g clip-path="url(#p.0)"><path fill="#000000" fill-opacity="0.0" d="m0 0l644.9029 0l0 365.18634l-644.9029 0z" fill-rule="evenodd"/><path fill="#000000" fill-opacity="0.0" d="m2.1312337 114.7658l126.3937 0l0 92.69291l-126.3937 0z" fill-rule="evenodd"/><path stroke="#000000" stroke-width="2.0" stroke-linejoin="round" stroke-linecap="butt" d="m2.1312337 114.7658l126.3937 0l0 92.69291l-126.3937 0z" fill-rule="evenodd"/><path fill="#000000" d="m37.81348 157.03226l5.125 -13.359375l1.90625 0l5.46875 13.359375l-2.015625 0l-1.546875 -4.046875l-5.59375 0l-1.46875 4.046875l-1.875 0zm3.859375 -5.484375l4.53125 0l-1.40625 -3.703125q-0.625 -1.6875 -0.9375 -2.765625q-0.265625 1.28125 -0.71875 2.546875l-1.46875 3.921875zm9.849823 9.1875l0 -13.375l1.484375 0l0 1.25q0.53125 -0.734375 1.1875 -1.09375q0.671875 -0.375 1.625 -0.375q1.234375 0 2.171875 0.640625q0.953125 0.625 1.4375 1.796875q0.484375 1.15625 0.484375 2.546875q0 1.484375 -0.53125 2.671875q-0.53125 1.1875 -1.546875 1.828125q-1.015625 0.625 -2.140625 0.625q-0.8125 0 -1.46875 -0.34375q-0.65625 -0.34375 -1.0625 -0.875l0 4.703125l-1.640625 0zm1.484375 -8.484375q0 1.859375 0.75 2.765625q0.765625 0.890625 1.828125 0.890625q1.09375 0 1.875 -0.921875q0.78125 -0.9375 0.78125 -2.875q0 -1.84375 -0.765625 -2.765625q-0.75 -0.921875 -1.8125 -0.921875q-1.046875 0 -1.859375 0.984375q-0.796875 0.96875 -0.796875 2.84375zm8.891342 8.484375l0 -13.375l1.484375 0l0 1.25q0.53125 -0.734375 1.1875038 -1.09375q0.671875 -0.375 1.625 -0.375q1.234375 0 2.171875 0.640625q0.953125 0.625 1.4375 1.796875q0.484375 1.15625 0.484375 2.546875q0 1.484375 -0.53125 2.671875q-0.53125 1.1875 -1.546875 1.828125q-1.015625 0.625 -2.140625 0.625q-0.8125 0 -1.46875 -0.34375q-0.6562538 -0.34375 -1.0625038 -0.875l0 4.703125l-1.640625 0zm1.484375 -8.484375q0 1.859375 0.7500038 2.765625q0.765625 0.890625 1.828125 0.890625q1.09375 0 1.875 -0.921875q0.78125 -0.9375 0.78125 -2.875q0 -1.84375 -0.765625 -2.765625q-0.75 -0.921875 -1.8125 -0.921875q-1.046875 0 -1.859375 0.984375q-0.7968788 0.96875 -0.7968788 2.84375zm13.465275 -0.0625q0 -2.6875 1.484375 -3.96875q1.25 -1.078125 3.046875 -1.078125q2.0 0 3.265625 1.3125q1.265625 1.296875 1.265625 3.609375q0 1.859375 -0.5625 2.9375q-0.5625 1.0625 -1.640625 1.65625q-1.0625 0.59375 -2.328125 0.59375q-2.03125 0 -3.28125 -1.296875q-1.25 -1.3125 -1.25 -3.765625zm1.6875 0q0 1.859375 0.796875 2.796875q0.8125 0.921875 2.046875 0.921875q1.21875 0 2.03125 -0.921875q0.8125 -0.9375 0.8125 -2.84375q0 -1.796875 -0.8125 -2.71875q-0.8125 -0.921875 -2.03125 -0.921875q-1.234375 0 -2.046875 0.921875q-0.796875 0.90625 -0.796875 2.765625zm9.281967 4.84375l0 -9.671875l1.46875 0l0 1.46875q0.5625 -1.03125 1.03125 -1.359375q0.484375 -0.328125 1.0625 -0.328125q0.828125 0 1.6875 0.53125l-0.5625 1.515625q-0.609375 -0.359375 -1.203125 -0.359375q-0.546875 0 -0.96875 0.328125q-0.421875 0.328125 -0.609375 0.890625q-0.28125 0.875 -0.28125 1.921875l0 5.0625l-1.625 0z" fill-rule="nonzero"/><path fill="#000000" d="m14.914326 179.03226l0 -13.359375l4.609375 0q1.546875 0 2.375 0.203125q1.140625 0.25 1.953125 0.953125q1.0625 0.890625 1.578125 2.28125q0.53125 1.390625 0.53125 3.171875q0 1.515625 -0.359375 2.703125q-0.359375 1.171875 -0.921875 1.9375q-0.546875 0.765625 -1.203125 1.21875q-0.65625 0.4375 -1.59375 0.671875q-0.9375 0.21875 -2.140625 0.21875l-4.828125 0zm1.765625 -1.578125l2.859375 0q1.3125 0 2.0625 -0.234375q0.75 -0.25 1.203125 -0.703125q0.625 -0.625 0.96875 -1.6875q0.359375 -1.0625 0.359375 -2.578125q0 -2.09375 -0.6875 -3.21875q-0.6875 -1.125 -1.671875 -1.5q-0.703125 -0.28125 -2.28125 -0.28125l-2.8125 0l0 10.203125zm17.816696 0.390625q-0.921875 0.765625 -1.765625 1.09375q-0.828125 0.3125 -1.796875 0.3125q-1.59375 0 -2.453125 -0.78125q-0.859375 -0.78125 -0.859375 -1.984375q0 -0.71875 0.328125 -1.296875q0.328125 -0.59375 0.84375 -0.9375q0.53125 -0.359375 1.1875 -0.546875q0.46875 -0.125 1.453125 -0.25q1.984375 -0.234375 2.921875 -0.5625q0.015625 -0.34375 0.015625 -0.421875q0 -1.0 -0.46875 -1.421875q-0.625 -0.546875 -1.875 -0.546875q-1.15625 0 -1.703125 0.40625q-0.546875 0.40625 -0.8125 1.421875l-1.609375 -0.21875q0.21875 -1.015625 0.71875 -1.640625q0.5 -0.640625 1.453125 -0.984375q0.953125 -0.34375 2.1875 -0.34375q1.25 0 2.015625 0.296875q0.78125 0.28125 1.140625 0.734375q0.375 0.4375 0.515625 1.109375q0.078125 0.421875 0.078125 1.515625l0 2.1875q0 2.28125 0.109375 2.890625q0.109375 0.59375 0.40625 1.15625l-1.703125 0q-0.265625 -0.515625 -0.328125 -1.1875zm-0.140625 -3.671875q-0.890625 0.375 -2.671875 0.625q-1.015625 0.140625 -1.4375 0.328125q-0.421875 0.1875 -0.65625 0.53125q-0.21875 0.34375 -0.21875 0.78125q0 0.65625 0.5 1.09375q0.5 0.4375 1.453125 0.4375q0.9375 0 1.671875 -0.40625q0.75 -0.421875 1.09375 -1.140625q0.265625 -0.5625 0.265625 -1.640625l0 -0.609375zm7.781967 3.390625l0.234375 1.453125q-0.6875 0.140625 -1.234375 0.140625q-0.890625 0 -1.390625 -0.28125q-0.484375 -0.28125 -0.6875 -0.734375q-0.203125 -0.46875 -0.203125 -1.9375l0 -5.578125l-1.203125 0l0 -1.265625l1.203125 0l0 -2.390625l1.625 -0.984375l0 3.375l1.65625 0l0 1.265625l-1.65625 0l0 5.671875q0 0.6875 0.078125 0.890625q0.09375 0.203125 0.28125 0.328125q0.203125 0.109375 0.578125 0.109375q0.265625 0 0.71875 -0.0625zm7.917679 0.28125q-0.921875 0.765625 -1.765625 1.09375q-0.828125 0.3125 -1.796875 0.3125q-1.59375 0 -2.453125 -0.78125q-0.859375 -0.78125 -0.859375 -1.984375q0 -0.71875 0.328125 -1.296875q0.328125 -0.59375 0.84375 -0.9375q0.53125 -0.359375 1.1875 -0.546875q0.46875 -0.125 1.453125 -0.25q1.984375 -0.234375 2.921875 -0.5625q0.015625 -0.34375 0.015625 -0.421875q0 -1.0 -0.46875 -1.421875q-0.625 -0.546875 -1.875 -0.546875q-1.15625 0 -1.703125 0.40625q-0.546875 0.40625 -0.8125 1.421875l-1.609375 -0.21875q0.21875 -1.015625 0.71875 -1.640625q0.5 -0.640625 1.453125 -0.984375q0.953125 -0.34375 2.1875 -0.34375q1.25 0 2.015625 0.296875q0.78125 0.28125 1.140625 0.734375q0.375 0.4375 0.515625 1.109375q0.078125 0.421875 0.078125 1.515625l0 2.1875q0 2.28125 0.109375 2.890625q0.109375 0.59375 0.40625 1.15625l-1.703125 0q-0.265625 -0.515625 -0.328125 -1.1875zm-0.140625 -3.671875q-0.890625 0.375 -2.671875 0.625q-1.015625 0.140625 -1.4375 0.328125q-0.421875 0.1875 -0.65625 0.53125q-0.21875 0.34375 -0.21875 0.78125q0 0.65625 0.5 1.09375q0.5 0.4375 1.453125 0.4375q0.9375 0 1.671875 -0.40625q0.75 -0.421875 1.09375 -1.140625q0.265625 -0.5625 0.265625 -1.640625l0 -0.609375zm8.996521 0.5625l1.65625 -0.140625q0.125 1.0 0.546875 1.640625q0.4375 0.640625 1.34375 1.046875q0.921875 0.390625 2.0625038 0.390625q1.0 0 1.78125 -0.296875q0.78125 -0.296875 1.15625 -0.8125q0.375 -0.53125 0.375 -1.15625q0 -0.625 -0.375 -1.09375q-0.359375 -0.46875 -1.1875 -0.796875q-0.546875 -0.203125 -2.3906288 -0.640625q-1.828125 -0.453125 -2.5625 -0.84375q-0.96875 -0.5 -1.4375 -1.234375q-0.46875 -0.75 -0.46875 -1.671875q0 -1.0 0.578125 -1.875q0.578125 -0.890625 1.671875 -1.34375q1.109375 -0.453125 2.4531288 -0.453125q1.484375 0 2.609375 0.484375q1.140625 0.46875 1.75 1.40625q0.609375 0.921875 0.65625 2.09375l-1.6875 0.125q-0.140625 -1.265625 -0.9375 -1.90625q-0.78125 -0.65625 -2.3125 -0.65625q-1.6093788 0 -2.3437538 0.59375q-0.734375 0.59375 -0.734375 1.421875q0 0.71875 0.53125 1.171875q0.5 0.46875 2.6562538 0.96875q2.15625 0.484375 2.953125 0.84375q1.171875 0.53125 1.71875 1.359375q0.5625 0.828125 0.5625 1.90625q0 1.0625 -0.609375 2.015625q-0.609375 0.9375 -1.75 1.46875q-1.140625 0.515625 -2.578125 0.515625q-1.8125038 0 -3.0468788 -0.53125q-1.21875 -0.53125 -1.921875 -1.59375q-0.6875 -1.0625 -0.71875 -2.40625zm12.224827 -0.546875q0 -2.6875 1.484375 -3.96875q1.25 -1.078125 3.046875 -1.078125q2.0 0 3.265625 1.3125q1.265625 1.296875 1.265625 3.609375q0 1.859375 -0.5625 2.9375q-0.5625 1.0625 -1.640625 1.65625q-1.0625 0.59375 -2.328125 0.59375q-2.03125 0 -3.28125 -1.296875q-1.25 -1.3125 -1.25 -3.765625zm1.6875 0q0 1.859375 0.796875 2.796875q0.8125 0.921875 2.046875 0.921875q1.21875 0 2.03125 -0.921875q0.8125 -0.9375 0.8125 -2.84375q0 -1.796875 -0.8125 -2.71875q-0.8125 -0.921875 -2.03125 -0.921875q-1.234375 0 -2.046875 0.921875q-0.796875 0.90625 -0.796875 2.765625zm15.625717 4.84375l0 -1.421875q-1.125 1.640625 -3.0625 1.640625q-0.859375 0 -1.609375 -0.328125q-0.734375 -0.328125 -1.09375 -0.828125q-0.359375 -0.5 -0.5 -1.21875q-0.109375 -0.46875 -0.109375 -1.53125l0 -5.984375l1.640625 0l0 5.359375q0 1.28125 0.109375 1.734375q0.15625 0.640625 0.65625 1.015625q0.5 0.375 1.234375 0.375q0.734375 0 1.375 -0.375q0.65625 -0.390625 0.921875 -1.03125q0.265625 -0.65625 0.265625 -1.890625l0 -5.1875l1.640625 0l0 9.671875l-1.46875 0zm4.031967 0l0 -9.671875l1.46875 0l0 1.46875q0.5625 -1.03125 1.03125 -1.359375q0.484375 -0.328125 1.0625 -0.328125q0.828125 0 1.6875 0.53125l-0.5625 1.515625q-0.609375 -0.359375 -1.203125 -0.359375q-0.546875 0 -0.96875 0.328125q-0.421875 0.328125 -0.609375 0.890625q-0.28125 0.875 -0.28125 1.921875l0 5.0625l-1.625 0zm12.540802 -3.546875l1.609375 0.21875q-0.265625 1.65625 -1.359375 2.609375q-1.078125 0.9375 -2.671875 0.9375q-1.984375 0 -3.1875 -1.296875q-1.203125 -1.296875 -1.203125 -3.71875q0 -1.578125 0.515625 -2.75q0.515625 -1.171875 1.578125 -1.75q1.0625 -0.59375 2.3125 -0.59375q1.578125 0 2.578125 0.796875q1.0 0.796875 1.28125 2.265625l-1.59375 0.234375q-0.234375 -0.96875 -0.8125 -1.453125q-0.578125 -0.5 -1.390625 -0.5q-1.234375 0 -2.015625 0.890625q-0.78125 0.890625 -0.78125 2.8125q0 1.953125 0.75 2.84375q0.75 0.875 1.953125 0.875q0.96875 0 1.609375 -0.59375q0.65625 -0.59375 0.828125 -1.828125zm9.640625 0.4375l1.6875 0.203125q-0.40625 1.484375 -1.484375 2.3125q-1.078125 0.8125 -2.765625 0.8125q-2.125 0 -3.375 -1.296875q-1.234375 -1.3125 -1.234375 -3.671875q0 -2.453125 1.25 -3.796875q1.265625 -1.34375 3.265625 -1.34375q1.9375 0 3.15625 1.328125q1.234375 1.3125 1.234375 3.703125q0 0.15625 0 0.4375l-7.21875 0q0.09375 1.59375 0.90625 2.453125q0.8125 0.84375 2.015625 0.84375q0.90625 0 1.546875 -0.46875q0.640625 -0.484375 1.015625 -1.515625zm-5.390625 -2.65625l5.40625 0q-0.109375 -1.21875 -0.625 -1.828125q-0.78125 -0.953125 -2.03125 -0.953125q-1.125 0 -1.90625 0.765625q-0.765625 0.75 -0.84375 2.015625z" fill-rule="nonzero"/><path fill="#000000" fill-opacity="0.0" d="m2.1312337 240.81233l295.2441 0l0 116.34645l-295.2441 0z" fill-rule="evenodd"/><path fill="#666666" d="m19.974983 280.54047l0.890625 4.40625l1.0625 -4.21875l6.171875 -20.953125l2.171875 0l6.09375 20.953125l1.0625 4.265625l0.9375 -4.453125l5.125 -20.765625l2.46875 0l-7.28125 28.4375l-2.3125 0l-6.4375 -22.25l-0.734375 -2.8125l-0.703125 2.8125l-6.59375 22.25l-2.3125 0l-7.265625 -28.4375l2.46875 0l5.1875 20.765625zm32.6875 7.671875l-2.34375 0l0 -21.140625l2.34375 0l0 21.140625zm-2.765625 -27.25q0 -0.65625 0.421875 -1.109375q0.4375 -0.46875 1.171875 -0.46875q0.75 0 1.1875 0.46875q0.453125 0.453125 0.453125 1.125q0 0.65625 -0.453125 1.109375q-0.4375 0.4375 -1.1875 0.4375q-0.734375 0 -1.171875 -0.4375q-0.421875 -0.453125 -0.421875 -1.125zm12.746094 0.703125l0 5.40625l4.375 0l0 1.921875l-4.375 0l0 14.078125q0 1.765625 0.625 2.625q0.640625 0.859375 2.125 0.859375q0.578125 0 1.890625 -0.203125l0.09375 1.921875q-0.90625 0.328125 -2.5 0.328125q-2.390625 0 -3.484375 -1.390625q-1.09375 -1.40625 -1.09375 -4.125l0 -14.09375l-3.890625 0l0 -1.921875l3.890625 0l0 -5.40625l2.34375 0zm11.5390625 8.984375q1.15625 -1.890625 2.953125 -2.921875q1.796875 -1.046875 3.921875 -1.046875q3.390625 0 5.046875 1.921875q1.671875 1.90625 1.6875 5.734375l0 13.875l-2.328125 0l0 -13.890625q-0.015625 -2.828125 -1.203125 -4.21875q-1.171875 -1.390625 -3.765625 -1.390625q-2.171875 0 -3.84375 1.359375q-1.671875 1.359375 -2.46875 3.671875l0 14.46875l-2.328125 0l0 -30.0l2.328125 0l0 12.4375zm18.34375 6.6875q0 -3.046875 1.171875 -5.484375q1.1875 -2.453125 3.34375 -3.8125q2.15625 -1.359375 4.890625 -1.359375q4.21875 0 6.828125 2.96875q2.625 2.953125 2.625 7.84375l0 0.484375q0 3.0625 -1.1875 5.515625q-1.171875 2.453125 -3.328125 3.78125q-2.140625 1.328125 -4.890625 1.328125q-4.203125 0 -6.828125 -2.953125q-2.625 -2.96875 -2.625 -7.84375l0 -0.46875zm2.34375 0.640625q0 3.78125 1.953125 6.21875q1.96875 2.4375 5.15625 2.4375q3.15625 0 5.109375 -2.4375q1.96875 -2.4375 1.96875 -6.421875l0 -0.4375q0 -2.421875 -0.90625 -4.4375q-0.890625 -2.015625 -2.515625 -3.109375q-1.609375 -1.109375 -3.703125 -1.109375q-3.125 0 -5.09375 2.453125q-1.96875 2.453125 -1.96875 6.40625l0 0.4375zm34.9336 7.5625q-2.1093826 3.0625 -6.7343826 3.0625q-3.375 0 -5.140625 -1.953125q-1.75 -1.96875 -1.796875 -5.828125l0 -13.75l2.328125 0l0 13.46875q0 6.03125 4.875 6.03125q5.0781326 0 6.4375076 -4.203125l0 -15.296875l2.34375 0l0 21.140625l-2.265625 0l-0.046875 -2.671875zm12.019531 -23.875l0 5.40625l4.375 0l0 1.921875l-4.375 0l0 14.078125q0 1.765625 0.625 2.625q0.640625 0.859375 2.125 0.859375q0.578125 0 1.890625 -0.203125l0.09375 1.921875q-0.90625 0.328125 -2.5 0.328125q-2.390625 0 -3.484375 -1.390625q-1.09375 -1.40625 -1.09375 -4.125l0 -14.09375l-3.890625 0l0 -1.921875l3.890625 0l0 -5.40625l2.34375 0z" fill-rule="nonzero"/><path fill="#666666" d="m17.131233 324.63422l0 11.578125l-2.40625 0l0 -28.4375l9.6875 0q4.4375 0 7.0 2.265625q2.578125 2.265625 2.578125 6.234375q0 4.0 -2.484375 6.1875q-2.46875 2.171875 -7.15625 2.171875l-7.21875 0zm0 -2.03125l7.28125 0q3.5 0 5.328125 -1.65625q1.84375 -1.671875 1.84375 -4.640625q0 -2.953125 -1.828125 -4.6875q-1.828125 -1.75 -5.1875 -1.796875l-7.4375 0l0 12.78125zm34.804688 13.609375q-0.359375 -1.0 -0.453125 -2.953125q-1.234375 1.609375 -3.140625 2.484375q-1.890625 0.859375 -4.03125 0.859375q-3.046875 0 -4.9375 -1.703125q-1.875 -1.703125 -1.875 -4.296875q0 -3.078125 2.5625 -4.875q2.578125 -1.796875 7.171875 -1.796875l4.234375 0l0 -2.40625q0 -2.265625 -1.40625 -3.5625q-1.390625 -1.296875 -4.0625 -1.296875q-2.4375 0 -4.046875 1.25q-1.59375 1.25 -1.59375 3.0l-2.34375 -0.015625q0 -2.515625 2.34375 -4.359375q2.34375 -1.859375 5.75 -1.859375q3.546875 0 5.578125 1.78125q2.046875 1.765625 2.109375 4.921875l0 10.0q0 3.0625 0.640625 4.59375l0 0.234375l-2.5 0zm-7.34375 -1.6875q2.34375 0 4.1875 -1.125q1.84375 -1.140625 2.6875 -3.03125l0 -4.640625l-4.1875 0q-3.484375 0.03125 -5.46875 1.28125q-1.96875 1.234375 -1.96875 3.40625q0 1.765625 1.3125 2.9375q1.328125 1.171875 3.4375 1.171875zm17.660156 -19.453125l0.078125 3.625q1.1875 -1.953125 2.953125 -2.984375q1.78125 -1.03125 3.9375 -1.03125q3.390625 0 5.046875 1.921875q1.671875 1.90625 1.6875 5.734375l0 13.875l-2.328125 0l0 -13.890625q-0.015625 -2.828125 -1.203125 -4.21875q-1.171875 -1.390625 -3.765625 -1.390625q-2.171875 0 -3.84375 1.359375q-1.671875 1.359375 -2.46875 3.671875l0 14.46875l-2.328125 0l0 -21.140625l2.234375 0zm27.550781 19.5625q2.4375 0 4.09375 -1.375q1.65625 -1.390625 1.78125 -3.578125l2.25 0q-0.09375 1.9375 -1.21875 3.53125q-1.109375 1.59375 -2.953125 2.5q-1.84375 0.890625 -3.953125 0.890625q-4.15625 0 -6.59375 -2.890625q-2.421875 -2.890625 -2.421875 -7.78125l0 -0.703125q0 -3.125 1.09375 -5.515625q1.09375 -2.40625 3.125 -3.71875q2.046875 -1.3125 4.78125 -1.3125q3.46875 0 5.71875 2.078125q2.265625 2.0625 2.421875 5.453125l-2.25 0q-0.15625 -2.484375 -1.78125 -4.0q-1.625 -1.53125 -4.109375 -1.53125q-3.171875 0 -4.921875 2.28125q-1.734375 2.28125 -1.734375 6.40625l0 0.6875q0 4.046875 1.734375 6.3125q1.75 2.265625 4.9375 2.265625zm26.136719 1.578125q-0.359375 -1.0 -0.453125 -2.953125q-1.234375 1.609375 -3.140625 2.484375q-1.890625 0.859375 -4.03125 0.859375q-3.046875 0 -4.9375 -1.703125q-1.875 -1.703125 -1.875 -4.296875q0 -3.078125 2.5625 -4.875q2.578125 -1.796875 7.171875 -1.796875l4.234375 0l0 -2.40625q0 -2.265625 -1.40625 -3.5625q-1.390625 -1.296875 -4.0625 -1.296875q-2.4375 0 -4.046875 1.25q-1.59375 1.25 -1.59375 3.0l-2.34375 -0.015625q0 -2.515625 2.34375 -4.359375q2.34375 -1.859375 5.75 -1.859375q3.546875 0 5.578125 1.78125q2.046875 1.765625 2.109375 4.921875l0 10.0q0 3.0625 0.640625 4.59375l0 0.234375l-2.5 0zm-7.34375 -1.6875q2.34375 0 4.1875 -1.125q1.84375 -1.140625 2.6875 -3.03125l0 -4.640625l-4.1875 0q-3.484375 0.03125 -5.46875 1.28125q-1.96875 1.234375 -1.96875 3.40625q0 1.765625 1.3125 2.9375q1.328125 1.171875 3.4375 1.171875zm20.441414 -8.953125l-2.6718826 2.578125l0 8.0625l-2.34375 0l0 -30.0l2.34375 0l0 19.203125l2.2031326 -2.390625l8.09375 -7.953125l2.953125 0l-8.96875 8.90625l9.75 12.234375l-2.796875 0l-8.5625 -10.640625zm22.371094 11.03125q-2.703125 0 -4.875 -1.328125q-2.171875 -1.328125 -3.390625 -3.703125q-1.203125 -2.375 -1.203125 -5.328125l0 -0.828125q0 -3.046875 1.171875 -5.484375q1.1875 -2.453125 3.296875 -3.84375q2.109375 -1.40625 4.5625 -1.40625q3.859375 0 6.109375 2.640625q2.25 2.625 2.25 7.171875l0 1.3125l-15.078125 0l0 0.4375q0 3.59375 2.0625 6.0q2.0625 2.390625 5.1875 2.390625q1.875 0 3.3125 -0.6875q1.4375 -0.6875 2.609375 -2.1875l1.46875 1.109375q-2.578125 3.734375 -7.484375 3.734375zm-0.4375 -19.921875q-2.625 0 -4.4375 1.9375q-1.8125 1.921875 -2.203125 5.1875l12.6875 0l0 -0.25q-0.109375 -3.046875 -1.75 -4.953125q-1.640625 -1.921875 -4.296875 -1.921875zm13.4609375 19.53125l0 -28.4375l7.953125 0q3.5 0 6.265625 1.59375q2.78125 1.59375 4.328125 4.5625q1.546875 2.96875 1.546875 6.75l0 2.625q0 3.796875 -1.546875 6.75q-1.53125 2.953125 -4.34375 4.5625q-2.796875 1.59375 -6.421875 1.59375l-7.78125 0zm2.40625 -26.390625l0 24.359375l5.390625 0q4.484375 0 7.203125 -2.96875q2.71875 -2.984375 2.71875 -8.0625l0 -2.5q0 -4.90625 -2.6875 -7.859375q-2.671875 -2.953125 -7.046875 -2.96875l-5.578125 0zm23.785156 26.390625l0 -28.4375l8.40625 0q4.5625 0 6.921875 1.890625q2.375 1.875 2.375 5.546875q0 2.203125 -1.203125 3.84375q-1.203125 1.625 -3.296875 2.328125q2.484375 0.546875 4.0 2.453125q1.515625 1.890625 1.515625 4.359375q0 3.78125 -2.4375 5.90625q-2.4375 2.109375 -6.765625 2.109375l-9.515625 0zm2.40625 -13.671875l0 11.640625l7.203125 0q3.09375 0 4.890625 -1.5625q1.8125 -1.578125 1.8125 -4.375q0 -2.640625 -1.734375 -4.171875q-1.71875 -1.53125 -4.765625 -1.53125l-7.40625 0zm0 -2.015625l6.5625 0q3.0 -0.0625 4.65625 -1.40625q1.65625 -1.359375 1.65625 -3.96875q0 -2.734375 -1.71875 -4.03125q-1.703125 -1.296875 -5.15625 -1.296875l-6.0 0l0 10.703125z" fill-rule="nonzero"/><path fill="#000000" fill-opacity="0.0" d="m2.1312337 114.7658l126.3937 0l0 92.69291l-126.3937 0z" fill-rule="evenodd"/><path stroke="#000000" stroke-width="2.0" stroke-linejoin="round" stroke-linecap="butt" d="m2.1312337 114.7658l126.3937 0l0 92.69291l-126.3937 0z" fill-rule="evenodd"/><path fill="#000000" d="m37.81348 157.03226l5.125 -13.359375l1.90625 0l5.46875 13.359375l-2.015625 0l-1.546875 -4.046875l-5.59375 0l-1.46875 4.046875l-1.875 0zm3.859375 -5.484375l4.53125 0l-1.40625 -3.703125q-0.625 -1.6875 -0.9375 -2.765625q-0.265625 1.28125 -0.71875 2.546875l-1.46875 3.921875zm9.849823 9.1875l0 -13.375l1.484375 0l0 1.25q0.53125 -0.734375 1.1875 -1.09375q0.671875 -0.375 1.625 -0.375q1.234375 0 2.171875 0.640625q0.953125 0.625 1.4375 1.796875q0.484375 1.15625 0.484375 2.546875q0 1.484375 -0.53125 2.671875q-0.53125 1.1875 -1.546875 1.828125q-1.015625 0.625 -2.140625 0.625q-0.8125 0 -1.46875 -0.34375q-0.65625 -0.34375 -1.0625 -0.875l0 4.703125l-1.640625 0zm1.484375 -8.484375q0 1.859375 0.75 2.765625q0.765625 0.890625 1.828125 0.890625q1.09375 0 1.875 -0.921875q0.78125 -0.9375 0.78125 -2.875q0 -1.84375 -0.765625 -2.765625q-0.75 -0.921875 -1.8125 -0.921875q-1.046875 0 -1.859375 0.984375q-0.796875 0.96875 -0.796875 2.84375zm8.891342 8.484375l0 -13.375l1.484375 0l0 1.25q0.53125 -0.734375 1.1875038 -1.09375q0.671875 -0.375 1.625 -0.375q1.234375 0 2.171875 0.640625q0.953125 0.625 1.4375 1.796875q0.484375 1.15625 0.484375 2.546875q0 1.484375 -0.53125 2.671875q-0.53125 1.1875 -1.546875 1.828125q-1.015625 0.625 -2.140625 0.625q-0.8125 0 -1.46875 -0.34375q-0.6562538 -0.34375 -1.0625038 -0.875l0 4.703125l-1.640625 0zm1.484375 -8.484375q0 1.859375 0.7500038 2.765625q0.765625 0.890625 1.828125 0.890625q1.09375 0 1.875 -0.921875q0.78125 -0.9375 0.78125 -2.875q0 -1.84375 -0.765625 -2.765625q-0.75 -0.921875 -1.8125 -0.921875q-1.046875 0 -1.859375 0.984375q-0.7968788 0.96875 -0.7968788 2.84375zm13.465275 -0.0625q0 -2.6875 1.484375 -3.96875q1.25 -1.078125 3.046875 -1.078125q2.0 0 3.265625 1.3125q1.265625 1.296875 1.265625 3.609375q0 1.859375 -0.5625 2.9375q-0.5625 1.0625 -1.640625 1.65625q-1.0625 0.59375 -2.328125 0.59375q-2.03125 0 -3.28125 -1.296875q-1.25 -1.3125 -1.25 -3.765625zm1.6875 0q0 1.859375 0.796875 2.796875q0.8125 0.921875 2.046875 0.921875q1.21875 0 2.03125 -0.921875q0.8125 -0.9375 0.8125 -2.84375q0 -1.796875 -0.8125 -2.71875q-0.8125 -0.921875 -2.03125 -0.921875q-1.234375 0 -2.046875 0.921875q-0.796875 0.90625 -0.796875 2.765625zm9.281967 4.84375l0 -9.671875l1.46875 0l0 1.46875q0.5625 -1.03125 1.03125 -1.359375q0.484375 -0.328125 1.0625 -0.328125q0.828125 0 1.6875 0.53125l-0.5625 1.515625q-0.609375 -0.359375 -1.203125 -0.359375q-0.546875 0 -0.96875 0.328125q-0.421875 0.328125 -0.609375 0.890625q-0.28125 0.875 -0.28125 1.921875l0 5.0625l-1.625 0z" fill-rule="nonzero"/><path fill="#000000" d="m14.914326 179.03226l0 -13.359375l4.609375 0q1.546875 0 2.375 0.203125q1.140625 0.25 1.953125 0.953125q1.0625 0.890625 1.578125 2.28125q0.53125 1.390625 0.53125 3.171875q0 1.515625 -0.359375 2.703125q-0.359375 1.171875 -0.921875 1.9375q-0.546875 0.765625 -1.203125 1.21875q-0.65625 0.4375 -1.59375 0.671875q-0.9375 0.21875 -2.140625 0.21875l-4.828125 0zm1.765625 -1.578125l2.859375 0q1.3125 0 2.0625 -0.234375q0.75 -0.25 1.203125 -0.703125q0.625 -0.625 0.96875 -1.6875q0.359375 -1.0625 0.359375 -2.578125q0 -2.09375 -0.6875 -3.21875q-0.6875 -1.125 -1.671875 -1.5q-0.703125 -0.28125 -2.28125 -0.28125l-2.8125 0l0 10.203125zm17.816696 0.390625q-0.921875 0.765625 -1.765625 1.09375q-0.828125 0.3125 -1.796875 0.3125q-1.59375 0 -2.453125 -0.78125q-0.859375 -0.78125 -0.859375 -1.984375q0 -0.71875 0.328125 -1.296875q0.328125 -0.59375 0.84375 -0.9375q0.53125 -0.359375 1.1875 -0.546875q0.46875 -0.125 1.453125 -0.25q1.984375 -0.234375 2.921875 -0.5625q0.015625 -0.34375 0.015625 -0.421875q0 -1.0 -0.46875 -1.421875q-0.625 -0.546875 -1.875 -0.546875q-1.15625 0 -1.703125 0.40625q-0.546875 0.40625 -0.8125 1.421875l-1.609375 -0.21875q0.21875 -1.015625 0.71875 -1.640625q0.5 -0.640625 1.453125 -0.984375q0.953125 -0.34375 2.1875 -0.34375q1.25 0 2.015625 0.296875q0.78125 0.28125 1.140625 0.734375q0.375 0.4375 0.515625 1.109375q0.078125 0.421875 0.078125 1.515625l0 2.1875q0 2.28125 0.109375 2.890625q0.109375 0.59375 0.40625 1.15625l-1.703125 0q-0.265625 -0.515625 -0.328125 -1.1875zm-0.140625 -3.671875q-0.890625 0.375 -2.671875 0.625q-1.015625 0.140625 -1.4375 0.328125q-0.421875 0.1875 -0.65625 0.53125q-0.21875 0.34375 -0.21875 0.78125q0 0.65625 0.5 1.09375q0.5 0.4375 1.453125 0.4375q0.9375 0 1.671875 -0.40625q0.75 -0.421875 1.09375 -1.140625q0.265625 -0.5625 0.265625 -1.640625l0 -0.609375zm7.781967 3.390625l0.234375 1.453125q-0.6875 0.140625 -1.234375 0.140625q-0.890625 0 -1.390625 -0.28125q-0.484375 -0.28125 -0.6875 -0.734375q-0.203125 -0.46875 -0.203125 -1.9375l0 -5.578125l-1.203125 0l0 -1.265625l1.203125 0l0 -2.390625l1.625 -0.984375l0 3.375l1.65625 0l0 1.265625l-1.65625 0l0 5.671875q0 0.6875 0.078125 0.890625q0.09375 0.203125 0.28125 0.328125q0.203125 0.109375 0.578125 0.109375q0.265625 0 0.71875 -0.0625zm7.917679 0.28125q-0.921875 0.765625 -1.765625 1.09375q-0.828125 0.3125 -1.796875 0.3125q-1.59375 0 -2.453125 -0.78125q-0.859375 -0.78125 -0.859375 -1.984375q0 -0.71875 0.328125 -1.296875q0.328125 -0.59375 0.84375 -0.9375q0.53125 -0.359375 1.1875 -0.546875q0.46875 -0.125 1.453125 -0.25q1.984375 -0.234375 2.921875 -0.5625q0.015625 -0.34375 0.015625 -0.421875q0 -1.0 -0.46875 -1.421875q-0.625 -0.546875 -1.875 -0.546875q-1.15625 0 -1.703125 0.40625q-0.546875 0.40625 -0.8125 1.421875l-1.609375 -0.21875q0.21875 -1.015625 0.71875 -1.640625q0.5 -0.640625 1.453125 -0.984375q0.953125 -0.34375 2.1875 -0.34375q1.25 0 2.015625 0.296875q0.78125 0.28125 1.140625 0.734375q0.375 0.4375 0.515625 1.109375q0.078125 0.421875 0.078125 1.515625l0 2.1875q0 2.28125 0.109375 2.890625q0.109375 0.59375 0.40625 1.15625l-1.703125 0q-0.265625 -0.515625 -0.328125 -1.1875zm-0.140625 -3.671875q-0.890625 0.375 -2.671875 0.625q-1.015625 0.140625 -1.4375 0.328125q-0.421875 0.1875 -0.65625 0.53125q-0.21875 0.34375 -0.21875 0.78125q0 0.65625 0.5 1.09375q0.5 0.4375 1.453125 0.4375q0.9375 0 1.671875 -0.40625q0.75 -0.421875 1.09375 -1.140625q0.265625 -0.5625 0.265625 -1.640625l0 -0.609375zm8.996521 0.5625l1.65625 -0.140625q0.125 1.0 0.546875 1.640625q0.4375 0.640625 1.34375 1.046875q0.921875 0.390625 2.0625038 0.390625q1.0 0 1.78125 -0.296875q0.78125 -0.296875 1.15625 -0.8125q0.375 -0.53125 0.375 -1.15625q0 -0.625 -0.375 -1.09375q-0.359375 -0.46875 -1.1875 -0.796875q-0.546875 -0.203125 -2.3906288 -0.640625q-1.828125 -0.453125 -2.5625 -0.84375q-0.96875 -0.5 -1.4375 -1.234375q-0.46875 -0.75 -0.46875 -1.671875q0 -1.0 0.578125 -1.875q0.578125 -0.890625 1.671875 -1.34375q1.109375 -0.453125 2.4531288 -0.453125q1.484375 0 2.609375 0.484375q1.140625 0.46875 1.75 1.40625q0.609375 0.921875 0.65625 2.09375l-1.6875 0.125q-0.140625 -1.265625 -0.9375 -1.90625q-0.78125 -0.65625 -2.3125 -0.65625q-1.6093788 0 -2.3437538 0.59375q-0.734375 0.59375 -0.734375 1.421875q0 0.71875 0.53125 1.171875q0.5 0.46875 2.6562538 0.96875q2.15625 0.484375 2.953125 0.84375q1.171875 0.53125 1.71875 1.359375q0.5625 0.828125 0.5625 1.90625q0 1.0625 -0.609375 2.015625q-0.609375 0.9375 -1.75 1.46875q-1.140625 0.515625 -2.578125 0.515625q-1.8125038 0 -3.0468788 -0.53125q-1.21875 -0.53125 -1.921875 -1.59375q-0.6875 -1.0625 -0.71875 -2.40625zm12.224827 -0.546875q0 -2.6875 1.484375 -3.96875q1.25 -1.078125 3.046875 -1.078125q2.0 0 3.265625 1.3125q1.265625 1.296875 1.265625 3.609375q0 1.859375 -0.5625 2.9375q-0.5625 1.0625 -1.640625 1.65625q-1.0625 0.59375 -2.328125 0.59375q-2.03125 0 -3.28125 -1.296875q-1.25 -1.3125 -1.25 -3.765625zm1.6875 0q0 1.859375 0.796875 2.796875q0.8125 0.921875 2.046875 0.921875q1.21875 0 2.03125 -0.921875q0.8125 -0.9375 0.8125 -2.84375q0 -1.796875 -0.8125 -2.71875q-0.8125 -0.921875 -2.03125 -0.921875q-1.234375 0 -2.046875 0.921875q-0.796875 0.90625 -0.796875 2.765625zm15.625717 4.84375l0 -1.421875q-1.125 1.640625 -3.0625 1.640625q-0.859375 0 -1.609375 -0.328125q-0.734375 -0.328125 -1.09375 -0.828125q-0.359375 -0.5 -0.5 -1.21875q-0.109375 -0.46875 -0.109375 -1.53125l0 -5.984375l1.640625 0l0 5.359375q0 1.28125 0.109375 1.734375q0.15625 0.640625 0.65625 1.015625q0.5 0.375 1.234375 0.375q0.734375 0 1.375 -0.375q0.65625 -0.390625 0.921875 -1.03125q0.265625 -0.65625 0.265625 -1.890625l0 -5.1875l1.640625 0l0 9.671875l-1.46875 0zm4.031967 0l0 -9.671875l1.46875 0l0 1.46875q0.5625 -1.03125 1.03125 -1.359375q0.484375 -0.328125 1.0625 -0.328125q0.828125 0 1.6875 0.53125l-0.5625 1.515625q-0.609375 -0.359375 -1.203125 -0.359375q-0.546875 0 -0.96875 0.328125q-0.421875 0.328125 -0.609375 0.890625q-0.28125 0.875 -0.28125 1.921875l0 5.0625l-1.625 0zm12.540802 -3.546875l1.609375 0.21875q-0.265625 1.65625 -1.359375 2.609375q-1.078125 0.9375 -2.671875 0.9375q-1.984375 0 -3.1875 -1.296875q-1.203125 -1.296875 -1.203125 -3.71875q0 -1.578125 0.515625 -2.75q0.515625 -1.171875 1.578125 -1.75q1.0625 -0.59375 2.3125 -0.59375q1.578125 0 2.578125 0.796875q1.0 0.796875 1.28125 2.265625l-1.59375 0.234375q-0.234375 -0.96875 -0.8125 -1.453125q-0.578125 -0.5 -1.390625 -0.5q-1.234375 0 -2.015625 0.890625q-0.78125 0.890625 -0.78125 2.8125q0 1.953125 0.75 2.84375q0.75 0.875 1.953125 0.875q0.96875 0 1.609375 -0.59375q0.65625 -0.59375 0.828125 -1.828125zm9.640625 0.4375l1.6875 0.203125q-0.40625 1.484375 -1.484375 2.3125q-1.078125 0.8125 -2.765625 0.8125q-2.125 0 -3.375 -1.296875q-1.234375 -1.3125 -1.234375 -3.671875q0 -2.453125 1.25 -3.796875q1.265625 -1.34375 3.265625 -1.34375q1.9375 0 3.15625 1.328125q1.234375 1.3125 1.234375 3.703125q0 0.15625 0 0.4375l-7.21875 0q0.09375 1.59375 0.90625 2.453125q0.8125 0.84375 2.015625 0.84375q0.90625 0 1.546875 -0.46875q0.640625 -0.484375 1.015625 -1.515625zm-5.390625 -2.65625l5.40625 0q-0.109375 -1.21875 -0.625 -1.828125q-0.78125 -0.953125 -2.03125 -0.953125q-1.125 0 -1.90625 0.765625q-0.765625 0.75 -0.84375 2.015625z" fill-rule="nonzero"/><path fill="#000000" fill-opacity="0.0" d="m2.1312337 240.81233l295.2441 0l0 116.34645l-295.2441 0z" fill-rule="evenodd"/><path fill="#666666" d="m19.974983 280.54047l0.890625 4.40625l1.0625 -4.21875l6.171875 -20.953125l2.171875 0l6.09375 20.953125l1.0625 4.265625l0.9375 -4.453125l5.125 -20.765625l2.46875 0l-7.28125 28.4375l-2.3125 0l-6.4375 -22.25l-0.734375 -2.8125l-0.703125 2.8125l-6.59375 22.25l-2.3125 0l-7.265625 -28.4375l2.46875 0l5.1875 20.765625zm32.6875 7.671875l-2.34375 0l0 -21.140625l2.34375 0l0 21.140625zm-2.765625 -27.25q0 -0.65625 0.421875 -1.109375q0.4375 -0.46875 1.171875 -0.46875q0.75 0 1.1875 0.46875q0.453125 0.453125 0.453125 1.125q0 0.65625 -0.453125 1.109375q-0.4375 0.4375 -1.1875 0.4375q-0.734375 0 -1.171875 -0.4375q-0.421875 -0.453125 -0.421875 -1.125zm12.746094 0.703125l0 5.40625l4.375 0l0 1.921875l-4.375 0l0 14.078125q0 1.765625 0.625 2.625q0.640625 0.859375 2.125 0.859375q0.578125 0 1.890625 -0.203125l0.09375 1.921875q-0.90625 0.328125 -2.5 0.328125q-2.390625 0 -3.484375 -1.390625q-1.09375 -1.40625 -1.09375 -4.125l0 -14.09375l-3.890625 0l0 -1.921875l3.890625 0l0 -5.40625l2.34375 0zm11.5390625 8.984375q1.15625 -1.890625 2.953125 -2.921875q1.796875 -1.046875 3.921875 -1.046875q3.390625 0 5.046875 1.921875q1.671875 1.90625 1.6875 5.734375l0 13.875l-2.328125 0l0 -13.890625q-0.015625 -2.828125 -1.203125 -4.21875q-1.171875 -1.390625 -3.765625 -1.390625q-2.171875 0 -3.84375 1.359375q-1.671875 1.359375 -2.46875 3.671875l0 14.46875l-2.328125 0l0 -30.0l2.328125 0l0 12.4375z" fill-rule="nonzero"/><path fill="#666666" d="m17.131233 324.63422l0 11.578125l-2.40625 0l0 -28.4375l9.6875 0q4.4375 0 7.0 2.265625q2.578125 2.265625 2.578125 6.234375q0 4.0 -2.484375 6.1875q-2.46875 2.171875 -7.15625 2.171875l-7.21875 0zm0 -2.03125l7.28125 0q3.5 0 5.328125 -1.65625q1.84375 -1.671875 1.84375 -4.640625q0 -2.953125 -1.828125 -4.6875q-1.828125 -1.75 -5.1875 -1.796875l-7.4375 0l0 12.78125zm34.804688 13.609375q-0.359375 -1.0 -0.453125 -2.953125q-1.234375 1.609375 -3.140625 2.484375q-1.890625 0.859375 -4.03125 0.859375q-3.046875 0 -4.9375 -1.703125q-1.875 -1.703125 -1.875 -4.296875q0 -3.078125 2.5625 -4.875q2.578125 -1.796875 7.171875 -1.796875l4.234375 0l0 -2.40625q0 -2.265625 -1.40625 -3.5625q-1.390625 -1.296875 -4.0625 -1.296875q-2.4375 0 -4.046875 1.25q-1.59375 1.25 -1.59375 3.0l-2.34375 -0.015625q0 -2.515625 2.34375 -4.359375q2.34375 -1.859375 5.75 -1.859375q3.546875 0 5.578125 1.78125q2.046875 1.765625 2.109375 4.921875l0 10.0q0 3.0625 0.640625 4.59375l0 0.234375l-2.5 0zm-7.34375 -1.6875q2.34375 0 4.1875 -1.125q1.84375 -1.140625 2.6875 -3.03125l0 -4.640625l-4.1875 0q-3.484375 0.03125 -5.46875 1.28125q-1.96875 1.234375 -1.96875 3.40625q0 1.765625 1.3125 2.9375q1.328125 1.171875 3.4375 1.171875zm17.660156 -19.453125l0.078125 3.625q1.1875 -1.953125 2.953125 -2.984375q1.78125 -1.03125 3.9375 -1.03125q3.390625 0 5.046875 1.921875q1.671875 1.90625 1.6875 5.734375l0 13.875l-2.328125 0l0 -13.890625q-0.015625 -2.828125 -1.203125 -4.21875q-1.171875 -1.390625 -3.765625 -1.390625q-2.171875 0 -3.84375 1.359375q-1.671875 1.359375 -2.46875 3.671875l0 14.46875l-2.328125 0l0 -21.140625l2.234375 0zm27.550781 19.5625q2.4375 0 4.09375 -1.375q1.65625 -1.390625 1.78125 -3.578125l2.25 0q-0.09375 1.9375 -1.21875 3.53125q-1.109375 1.59375 -2.953125 2.5q-1.84375 0.890625 -3.953125 0.890625q-4.15625 0 -6.59375 -2.890625q-2.421875 -2.890625 -2.421875 -7.78125l0 -0.703125q0 -3.125 1.09375 -5.515625q1.09375 -2.40625 3.125 -3.71875q2.046875 -1.3125 4.78125 -1.3125q3.46875 0 5.71875 2.078125q2.265625 2.0625 2.421875 5.453125l-2.25 0q-0.15625 -2.484375 -1.78125 -4.0q-1.625 -1.53125 -4.109375 -1.53125q-3.171875 0 -4.921875 2.28125q-1.734375 2.28125 -1.734375 6.40625l0 0.6875q0 4.046875 1.734375 6.3125q1.75 2.265625 4.9375 2.265625zm26.136719 1.578125q-0.359375 -1.0 -0.453125 -2.953125q-1.234375 1.609375 -3.140625 2.484375q-1.890625 0.859375 -4.03125 0.859375q-3.046875 0 -4.9375 -1.703125q-1.875 -1.703125 -1.875 -4.296875q0 -3.078125 2.5625 -4.875q2.578125 -1.796875 7.171875 -1.796875l4.234375 0l0 -2.40625q0 -2.265625 -1.40625 -3.5625q-1.390625 -1.296875 -4.0625 -1.296875q-2.4375 0 -4.046875 1.25q-1.59375 1.25 -1.59375 3.0l-2.34375 -0.015625q0 -2.515625 2.34375 -4.359375q2.34375 -1.859375 5.75 -1.859375q3.546875 0 5.578125 1.78125q2.046875 1.765625 2.109375 4.921875l0 10.0q0 3.0625 0.640625 4.59375l0 0.234375l-2.5 0zm-7.34375 -1.6875q2.34375 0 4.1875 -1.125q1.84375 -1.140625 2.6875 -3.03125l0 -4.640625l-4.1875 0q-3.484375 0.03125 -5.46875 1.28125q-1.96875 1.234375 -1.96875 3.40625q0 1.765625 1.3125 2.9375q1.328125 1.171875 3.4375 1.171875zm20.441414 -8.953125l-2.6718826 2.578125l0 8.0625l-2.34375 0l0 -30.0l2.34375 0l0 19.203125l2.2031326 -2.390625l8.09375 -7.953125l2.953125 0l-8.96875 8.90625l9.75 12.234375l-2.796875 0l-8.5625 -10.640625zm22.371094 11.03125q-2.703125 0 -4.875 -1.328125q-2.171875 -1.328125 -3.390625 -3.703125q-1.203125 -2.375 -1.203125 -5.328125l0 -0.828125q0 -3.046875 1.171875 -5.484375q1.1875 -2.453125 3.296875 -3.84375q2.109375 -1.40625 4.5625 -1.40625q3.859375 0 6.109375 2.640625q2.25 2.625 2.25 7.171875l0 1.3125l-15.078125 0l0 0.4375q0 3.59375 2.0625 6.0q2.0625 2.390625 5.1875 2.390625q1.875 0 3.3125 -0.6875q1.4375 -0.6875 2.609375 -2.1875l1.46875 1.109375q-2.578125 3.734375 -7.484375 3.734375zm-0.4375 -19.921875q-2.625 0 -4.4375 1.9375q-1.8125 1.921875 -2.203125 5.1875l12.6875 0l0 -0.25q-0.109375 -3.046875 -1.75 -4.953125q-1.640625 -1.921875 -4.296875 -1.921875zm13.4609375 19.53125l0 -28.4375l7.953125 0q3.5 0 6.265625 1.59375q2.78125 1.59375 4.328125 4.5625q1.546875 2.96875 1.546875 6.75l0 2.625q0 3.796875 -1.546875 6.75q-1.53125 2.953125 -4.34375 4.5625q-2.796875 1.59375 -6.421875 1.59375l-7.78125 0zm2.40625 -26.390625l0 24.359375l5.390625 0q4.484375 0 7.203125 -2.96875q2.71875 -2.984375 2.71875 -8.0625l0 -2.5q0 -4.90625 -2.6875 -7.859375q-2.671875 -2.953125 -7.046875 -2.96875l-5.578125 0zm23.785156 26.390625l0 -28.4375l8.40625 0q4.5625 0 6.921875 1.890625q2.375 1.875 2.375 5.546875q0 2.203125 -1.203125 3.84375q-1.203125 1.625 -3.296875 2.328125q2.484375 0.546875 4.0 2.453125q1.515625 1.890625 1.515625 4.359375q0 3.78125 -2.4375 5.90625q-2.4375 2.109375 -6.765625 2.109375l-9.515625 0zm2.40625 -13.671875l0 11.640625l7.203125 0q3.09375 0 4.890625 -1.5625q1.8125 -1.578125 1.8125 -4.375q0 -2.640625 -1.734375 -4.171875q-1.71875 -1.53125 -4.765625 -1.53125l-7.40625 0zm0 -2.015625l6.5625 0q3.0 -0.0625 4.65625 -1.40625q1.65625 -1.359375 1.65625 -3.96875q0 -2.734375 -1.71875 -4.03125q-1.703125 -1.296875 -5.15625 -1.296875l-6.0 0l0 10.703125z" fill-rule="nonzero"/></g></svg>